<?xml version="1.0" encoding="utf-8" standalone="no"?>
<!DOCTYPE svg PUBLIC "-//W3C//DTD SVG 1.1//EN"
  "http://www.w3.org/Graphics/SVG/1.1/DTD/svg11.dtd">
<!-- Created with matplotlib (http://matplotlib.org/) -->
<svg height="720pt" version="1.1" viewBox="0 0 720 720" width="720pt" xmlns="http://www.w3.org/2000/svg" xmlns:xlink="http://www.w3.org/1999/xlink">
 <defs>
  <style type="text/css">
*{stroke-linecap:butt;stroke-linejoin:round;stroke-miterlimit:100000;}
  </style>
 </defs>
 <g id="figure_1">
  <g id="patch_1">
   <path d="M 0 720 
L 720 720 
L 720 0 
L 0 0 
z
" style="fill:#ffffff;"/>
  </g>
  <g id="axes_1">
   <g id="patch_2">
    <path d="M 90 639 
L 648 639 
L 648 81 
L 90 81 
z
" style="fill:#ffffff;"/>
   </g>
   <g id="patch_3">
    <path clip-path="url(#p5ef1fd53d5)" d="M 276 434.4 
L 277.86 439.98 
L 276.093 439.98 
L 276.093 546 
L 275.907 546 
L 275.907 439.98 
L 274.14 439.98 
z
" style="fill:#ff0000;stroke:#ff0000;stroke-linejoin:miter;"/>
   </g>
   <g id="patch_4">
    <path clip-path="url(#p5ef1fd53d5)" d="M 305.016 434.4 
L 299.436 436.26 
L 299.436 434.493 
L 276 434.493 
L 276 434.307 
L 299.436 434.307 
L 299.436 432.54 
z
" style="fill:#ff0000;stroke:#ff0000;stroke-linejoin:miter;"/>
   </g>
   <g id="patch_5">
    <path clip-path="url(#p5ef1fd53d5)" d="M 305.016 412.79424 
L 306.876 418.37424 
L 305.109 418.37424 
L 305.109 434.4 
L 304.923 434.4 
L 304.923 418.37424 
L 303.156 418.37424 
z
" style="fill:#ff0000;stroke:#ff0000;stroke-linejoin:miter;"/>
   </g>
   <g id="patch_6">
    <path clip-path="url(#p5ef1fd53d5)" d="M 324.400474 412.79424 
L 318.820474 414.65424 
L 318.820474 412.88724 
L 305.016 412.88724 
L 305.016 412.70124 
L 318.820474 412.70124 
L 318.820474 410.93424 
z
" style="fill:#ff0000;stroke:#ff0000;stroke-linejoin:miter;"/>
   </g>
   <g id="patch_7">
    <path clip-path="url(#p5ef1fd53d5)" d="M 324.400474 397.173526 
L 326.260474 402.753526 
L 324.493474 402.753526 
L 324.493474 412.79424 
L 324.307474 412.79424 
L 324.307474 402.753526 
L 322.540474 402.753526 
z
" style="fill:#ff0000;stroke:#ff0000;stroke-linejoin:miter;"/>
   </g>
   <g id="patch_8">
    <path clip-path="url(#p5ef1fd53d5)" d="M 337.77772 397.173526 
L 332.19772 399.033526 
L 332.19772 397.266526 
L 324.400474 397.266526 
L 324.400474 397.080526 
L 332.19772 397.080526 
L 332.19772 395.313526 
z
" style="fill:#ff0000;stroke:#ff0000;stroke-linejoin:miter;"/>
   </g>
   <g id="patch_9">
    <path clip-path="url(#p5ef1fd53d5)" d="M 337.77772 386.109431 
L 339.63772 391.689431 
L 337.87072 391.689431 
L 337.87072 397.173526 
L 337.68472 397.173526 
L 337.68472 391.689431 
L 335.91772 391.689431 
z
" style="fill:#ff0000;stroke:#ff0000;stroke-linejoin:miter;"/>
   </g>
   <g id="patch_10">
    <path clip-path="url(#p5ef1fd53d5)" d="M 347.111693 386.109431 
L 341.531693 387.969431 
L 341.531693 386.202431 
L 337.77772 386.202431 
L 337.77772 386.016431 
L 341.531693 386.016431 
L 341.531693 384.249431 
z
" style="fill:#ff0000;stroke:#ff0000;stroke-linejoin:miter;"/>
   </g>
   <g id="patch_11">
    <path clip-path="url(#p5ef1fd53d5)" d="M 347.111693 375.087209 
L 348.971693 380.667209 
L 347.204693 380.667209 
L 347.204693 386.109431 
L 347.018693 386.109431 
L 347.018693 380.667209 
L 345.251693 380.667209 
z
" style="fill:#ff0000;stroke:#ff0000;stroke-linejoin:miter;"/>
   </g>
   <g id="patch_12">
    <path clip-path="url(#p5ef1fd53d5)" d="M 354.813282 375.087209 
L 349.233282 376.947209 
L 349.233282 375.180209 
L 347.111693 375.180209 
L 347.111693 374.994209 
L 349.233282 374.994209 
L 349.233282 373.227209 
z
" style="fill:#ff0000;stroke:#ff0000;stroke-linejoin:miter;"/>
   </g>
   <g id="LineCollection_1">
    <path clip-path="url(#p5ef1fd53d5)" d="M 406.376339 388.158767 
L 406.624211 387.9 
L 408.06 386.332184 
L 411.585859 382.32 
L 413.64 379.86988 
L 416.162136 376.74 
L 419.22 372.753165 
L 420.396262 371.16 
L 424.278218 365.58 
L 424.8 364.769231 
L 427.752381 360 
L 430.38 355.477049 
L 430.97156 354.42 
L 433.768932 348.84 
L 435.96 344.038298 
L 436.301869 343.26 
L 438.366337 337.68 
L 440.104211 332.1 
L 441.449438 326.52 
L 441.54 325.9 
L 442.233333 320.94 
L 442.473563 315.36 
L 442.060494 309.78 
L 441.54 307.3 
L 440.729231 304.2 
L 438.09322 298.62 
L 435.96 295.693023 
L 433.306977 293.04 
L 430.38 290.90678 
L 424.8 288.270769 
L 421.7 287.46 
L 419.22 286.939506 
L 413.64 286.526437 
L 408.06 286.766667 
L 403.1 287.46 
L 402.48 287.550562 
L 396.9 288.895789 
L 391.32 290.633663 
L 385.74 292.698131 
L 384.961702 293.04 
L 380.16 295.231068 
L 374.58 298.02844 
L 373.522951 298.62 
L 369 301.247619 
L 364.230769 304.2 
L 363.42 304.721782 
L 357.84 308.603738 
L 356.246835 309.78 
L 352.26 312.837864 
L 349.13012 315.36 
L 346.68 317.414141 
L 342.667816 320.94 
L 341.1 322.375789 
L 336.773626 326.52 
L 335.52 327.773626 
L 331.375789 332.1 
L 329.94 333.667816 
L 326.414141 337.68 
L 324.36 340.13012 
L 321.837864 343.26 
L 318.78 347.246835 
L 317.603738 348.84 
L 313.721782 354.42 
L 313.2 355.230769 
L 310.247619 360 
L 307.62 364.522951 
L 307.02844 365.58 
L 304.231068 371.16 
L 302.04 375.961702 
L 301.698131 376.74 
L 299.633663 382.32 
L 297.895789 387.9 
L 296.550562 393.48 
L 296.46 394.1 
L 295.766667 399.06 
L 295.526437 404.64 
L 295.939506 410.22 
L 296.46 412.7 
L 297.270769 415.8 
L 299.90678 421.38 
L 302.04 424.306977 
L 304.693023 426.96 
L 307.62 429.09322 
L 313.2 431.729231 
L 316.3 432.54 
L 318.78 433.060494 
L 324.36 433.473563 
L 329.94 433.233333 
L 334.9 432.54 
L 335.52 432.449438 
L 341.1 431.104211 
L 346.68 429.366337 
L 352.26 427.301869 
L 353.038298 426.96 
L 357.84 424.768932 
L 362.164064 422.601187 
" style="fill:none;stroke:#000000;"/>
   </g>
   <g id="LineCollection_2">
    <path clip-path="url(#p5ef1fd53d5)" d="M 325.394917 294.175872 
L 320.570199 298.62 
L 314.8 304.2 
L 309.320126 309.78 
L 304.109202 315.36 
L 299.147904 320.94 
L 294.418713 326.52 
L 289.905714 332.1 
L 285.3 338.1016 
L 279.72 345.909091 
L 274.030387 354.42 
L 268.56 363.491262 
L 267.358101 365.58 
L 262.98 373.758427 
L 261.480791 376.74 
L 257.4 385.626667 
L 256.425714 387.9 
L 254.24497 393.48 
L 251.82 400.421569 
L 250.531737 404.64 
L 249.062733 410.22 
L 247.84 415.8 
L 246.893289 421.38 
L 246.24 427.314286 
L 245.991156 432.54 
L 246.099291 438.12 
L 246.6616 443.7 
L 247.761345 449.28 
L 249.471681 454.86 
L 251.903093 460.44 
L 255.526374 466.02 
L 257.4 468.293333 
L 260.706667 471.6 
L 262.98 473.473626 
L 268.72449 477.18 
L 274.14 479.528319 
L 279.72 481.238655 
L 285.3 482.3384 
L 290.88 482.900709 
L 296.46 483.008844 
L 302.04 482.742657 
L 307.62 482.106711 
L 313.2 481.16 
L 318.78 479.937267 
L 324.36 478.468263 
L 329.94 476.753988 
L 335.52 474.75503 
L 343.373333 471.6 
L 346.68 470.149708 
L 355.241573 466.02 
L 357.84 464.683237 
L 365.508738 460.44 
L 369 458.385143 
L 374.749573 454.86 
L 383.090909 449.28 
L 390.8984 443.7 
L 391.32 443.388166 
L 398.126619 438.12 
L 404.920979 432.54 
L 411.345578 426.96 
L 417.429801 421.38 
L 423.2 415.8 
L 428.679874 410.22 
L 433.890798 404.64 
L 438.852096 399.06 
L 443.581287 393.48 
L 448.094286 387.9 
L 452.7 381.8984 
L 458.28 374.090909 
L 463.969613 365.58 
L 469.44 356.508738 
L 470.641899 354.42 
L 475.02 346.241573 
L 476.519209 343.26 
L 480.6 334.373333 
L 481.574286 332.1 
L 483.75503 326.52 
L 486.18 319.578431 
L 487.468263 315.36 
L 488.937267 309.78 
L 490.16 304.2 
L 491.106711 298.62 
L 491.76 292.685714 
L 492.008844 287.46 
L 491.900709 281.88 
L 491.3384 276.3 
L 490.238655 270.72 
L 488.528319 265.14 
L 486.096907 259.56 
L 482.473626 253.98 
L 480.6 251.706667 
L 477.293333 248.4 
L 475.02 246.526374 
L 469.27551 242.82 
L 463.86 240.471681 
L 458.28 238.761345 
L 452.7 237.6616 
L 447.12 237.099291 
L 441.54 236.991156 
L 435.96 237.257343 
L 430.38 237.893289 
L 424.8 238.84 
L 419.22 240.062733 
L 413.64 241.531737 
L 408.06 243.246012 
L 402.48 245.24497 
L 394.626667 248.4 
L 391.32 249.850292 
L 382.758427 253.98 
L 380.16 255.316763 
L 372.491262 259.56 
L 370.586135 260.681304 
L 370.586135 260.681304 
" style="fill:none;stroke:#000000;"/>
   </g>
   <g id="LineCollection_3">
    <path clip-path="url(#p5ef1fd53d5)" d="M 267.269616 324.699276 
L 261.602222 332.1 
L 257.4 337.84 
L 249.888987 348.84 
L 246.24 354.478832 
L 239.59869 365.58 
L 235.08 373.806723 
L 233.542291 376.74 
L 229.5 384.947619 
L 228.122222 387.9 
L 223.92 397.676923 
L 223.355605 399.06 
L 221.257143 404.64 
L 218.34 413.255224 
L 217.546977 415.8 
L 216.002392 421.38 
L 214.641379 426.96 
L 213.480711 432.54 
L 212.550249 438.12 
L 211.885641 443.7 
L 211.474074 449.28 
L 211.340437 454.86 
L 211.512994 460.44 
L 212.023977 466.02 
L 212.92 471.6 
L 214.312081 477.18 
L 216.211189 482.76 
L 218.711024 488.34 
L 222.095868 493.92 
L 223.92 496.4 
L 226.547619 499.5 
L 229.5 502.452381 
L 232.6 505.08 
L 235.08 506.904132 
L 241.407937 510.66 
L 246.24 512.788811 
L 251.82 514.687919 
L 258.318519 516.24 
L 262.98 516.976023 
L 268.56 517.487006 
L 274.14 517.659563 
L 279.72 517.525926 
L 285.3 517.114359 
L 292.157576 516.24 
L 296.46 515.519289 
L 302.04 514.358621 
L 307.62 512.997608 
L 315.744776 510.66 
L 318.78 509.696209 
L 324.36 507.742857 
L 331.323077 505.08 
L 335.52 503.336073 
L 344.052381 499.5 
L 346.68 498.251584 
L 355.193277 493.92 
L 357.84 492.507623 
L 365.247368 488.34 
L 374.58 482.723529 
L 385.74 475.367265 
L 391.32 471.486758 
L 398.73432 466.02 
L 408.06 458.757143 
L 413.64 454.193427 
L 419.411518 449.28 
L 425.674359 443.7 
L 431.685427 438.12 
L 437.459606 432.54 
L 443.010628 426.96 
L 448.351185 421.38 
L 453.493023 415.8 
L 458.447032 410.22 
L 463.86 403.837853 
L 469.44 396.949133 
L 476.397778 387.9 
L 480.6 382.16 
L 488.111013 371.16 
L 491.76 365.521168 
L 498.40131 354.42 
L 502.92 346.193277 
L 504.457709 343.26 
L 508.5 335.052381 
L 509.877778 332.1 
L 514.08 322.323077 
L 514.644395 320.94 
L 516.742857 315.36 
L 519.66 306.744776 
L 520.453023 304.2 
L 521.997608 298.62 
L 523.358621 293.04 
L 524.519289 287.46 
L 525.449751 281.88 
L 526.114359 276.3 
L 526.525926 270.72 
L 526.659563 265.14 
L 526.487006 259.56 
L 525.976023 253.98 
L 525.08 248.4 
L 523.687919 242.82 
L 521.788811 237.24 
L 519.288976 231.66 
L 515.904132 226.08 
L 514.08 223.6 
L 511.452381 220.5 
L 508.5 217.547619 
L 505.4 214.92 
L 502.92 213.095868 
L 496.592063 209.34 
L 491.76 207.211189 
L 486.18 205.312081 
L 479.681481 203.76 
L 475.02 203.023977 
L 469.44 202.512994 
L 463.86 202.340437 
L 458.28 202.474074 
L 452.7 202.885641 
L 445.842424 203.76 
L 441.54 204.480711 
L 435.96 205.641379 
L 430.38 207.002392 
L 422.255224 209.34 
L 419.22 210.303791 
L 413.64 212.257143 
L 406.676923 214.92 
L 402.48 216.663927 
L 393.947619 220.5 
L 391.32 221.748416 
L 382.806723 226.08 
L 380.16 227.492377 
L 372.752632 231.66 
L 363.42 237.276471 
L 352.26 244.632735 
L 346.68 248.513242 
L 339.26568 253.98 
L 329.94 261.242857 
L 324.36 265.806573 
L 318.588482 270.72 
L 312.325641 276.3 
L 304.873518 283.265362 
L 304.873518 283.265362 
" style="fill:none;stroke:#000000;"/>
   </g>
   <g id="LineCollection_4">
    <path clip-path="url(#p5ef1fd53d5)" d="M 476.028373 417.442762 
L 482.120077 410.22 
L 486.658555 404.64 
L 491.76 398.11269 
L 499.352075 387.9 
L 503.325651 382.32 
L 510.810487 371.16 
L 514.379705 365.58 
L 521.061338 354.42 
L 525.24 346.94965 
L 530.104981 337.68 
L 532.832075 332.1 
L 536.4 324.363478 
L 537.896958 320.94 
L 541.98 310.860396 
L 542.398084 309.78 
L 544.399216 304.2 
L 547.56 294.457143 
L 547.991304 293.04 
L 549.515385 287.46 
L 550.883817 281.88 
L 552.084681 276.3 
L 553.14 270.475758 
L 553.895708 265.14 
L 554.481057 259.56 
L 554.845701 253.98 
L 554.971163 248.4 
L 554.836842 242.82 
L 554.419704 237.24 
L 553.693909 231.66 
L 552.60221 226.08 
L 551.085143 220.5 
L 549.130178 214.92 
L 546.632026 209.34 
L 543.443537 203.76 
L 541.98 201.586869 
L 539.405344 198.18 
L 536.4 194.756522 
L 534.243478 192.6 
L 530.82 189.594656 
L 527.413131 187.02 
L 525.24 185.556463 
L 519.66 182.367974 
L 517.715068 181.44 
L 514.08 179.869822 
L 508.5 177.914857 
L 502.92 176.39779 
L 497.34 175.306091 
L 491.76 174.580296 
L 486.18 174.163158 
L 480.6 174.028837 
L 475.02 174.154299 
L 469.44 174.518943 
L 463.86 175.104292 
L 458.28 175.895197 
L 452.7 176.915319 
L 447.12 178.116183 
L 441.54 179.484615 
L 434.542857 181.44 
L 430.38 182.727309 
L 424.8 184.600784 
L 418.139604 187.02 
L 413.64 188.788327 
L 404.636522 192.6 
L 402.48 193.557529 
L 391.32 198.895019 
L 380.16 204.787833 
L 372.178981 209.34 
L 362.945029 214.92 
L 352.26 221.8673 
L 346.102646 226.08 
L 335.52 233.743295 
L 329.94 237.966148 
L 323.763507 242.82 
L 313.2 251.560784 
L 304.052915 259.56 
L 296.46 266.527984 
L 290.88 271.851046 
L 285.3 277.355319 
L 279.72 283.050216 
L 274.14 288.945815 
L 265.390837 298.62 
L 260.560784 304.2 
L 255.879923 309.78 
L 251.341445 315.36 
L 246.24 321.88731 
L 238.647925 332.1 
L 234.674349 337.68 
L 227.189513 348.84 
L 223.620295 354.42 
L 216.938662 365.58 
L 212.76 373.05035 
L 207.895019 382.32 
L 205.167925 387.9 
L 201.6 395.636522 
L 200.103042 399.06 
L 196.02 409.139604 
L 195.601916 410.22 
L 193.600784 415.8 
L 190.44 425.542857 
L 190.008696 426.96 
L 188.484615 432.54 
L 187.116183 438.12 
L 185.915319 443.7 
L 184.86 449.524242 
L 184.104292 454.86 
L 183.518943 460.44 
L 183.154299 466.02 
L 183.028837 471.6 
L 183.163158 477.18 
L 183.580296 482.76 
L 184.306091 488.34 
L 185.39779 493.92 
L 186.914857 499.5 
L 188.869822 505.08 
L 191.367974 510.66 
L 194.556463 516.24 
L 196.02 518.413131 
L 198.594656 521.82 
L 201.6 525.243478 
L 203.756522 527.4 
L 207.18 530.405344 
L 210.586869 532.98 
L 212.76 534.443537 
L 218.34 537.632026 
L 220.284932 538.56 
L 223.92 540.130178 
L 229.5 542.085143 
L 235.08 543.60221 
L 240.66 544.693909 
L 246.24 545.419704 
L 251.82 545.836842 
L 257.4 545.971163 
L 262.98 545.845701 
L 268.56 545.481057 
L 274.14 544.895708 
L 279.72 544.104803 
L 285.3 543.084681 
L 290.88 541.883817 
L 296.46 540.515385 
L 303.457143 538.56 
L 307.62 537.272691 
L 313.2 535.399216 
L 319.860396 532.98 
L 324.36 531.211673 
L 333.363478 527.4 
L 335.52 526.442471 
L 346.68 521.104981 
L 357.84 515.212167 
L 365.821019 510.66 
L 375.054971 505.08 
L 385.74 498.1327 
L 391.897354 493.92 
L 402.48 486.256705 
L 408.06 482.033852 
L 414.236493 477.18 
L 424.8 468.439216 
L 433.947085 460.44 
L 437.014081 457.653942 
L 437.014081 457.653942 
" style="fill:none;stroke:#000000;"/>
   </g>
   <g id="LineCollection_5">
    <path clip-path="url(#p5ef1fd53d5)" d="M 576.018915 266.335373 
L 576.268498 265.14 
L 577.268914 259.56 
L 578.101533 253.98 
L 578.75451 248.4 
L 579.214859 242.82 
L 579.468313 237.24 
L 579.499156 231.66 
L 579.290043 226.08 
L 578.821778 220.5 
L 578.073059 214.92 
L 577.020188 209.34 
L 575.46 203.179365 
L 573.810995 198.18 
L 571.555676 192.6 
L 568.77574 187.02 
L 565.346012 181.44 
L 564.3 179.957391 
L 561.094558 175.86 
L 558.72 173.19542 
L 555.80458 170.28 
L 553.14 167.905442 
L 547.56 163.653988 
L 541.98 160.22426 
L 539.883146 159.12 
L 536.4 157.444324 
L 530.82 155.189005 
L 525.24 153.363285 
L 519.66 151.979812 
L 514.08 150.926941 
L 508.5 150.178222 
L 502.92 149.709957 
L 497.34 149.500844 
L 491.76 149.531687 
L 486.18 149.785141 
L 480.6 150.24549 
L 475.02 150.898467 
L 469.44 151.731086 
L 463.86 152.731502 
L 458.28 153.901859 
L 452.7 155.253455 
L 447.12 156.745907 
L 439.175824 159.12 
L 435.96 160.154064 
L 424.8 164.122034 
L 419.22 166.319244 
L 408.06 171.069283 
L 396.9 176.322373 
L 385.74 182.06835 
L 374.58 188.297324 
L 367.324324 192.6 
L 357.84 198.507744 
L 346.68 205.93311 
L 341.1 209.802373 
L 329.94 217.953199 
L 324.36 222.203413 
L 318.78 226.57128 
L 307.62 235.733677 
L 299.404382 242.82 
L 290.88 250.488889 
L 281.257034 259.56 
L 274.14 266.570412 
L 264.693455 276.3 
L 257.4 284.16549 
L 249.514983 293.04 
L 240.66 303.498354 
L 235.08 310.4 
L 226.953199 320.94 
L 222.815947 326.52 
L 218.34 332.758937 
L 211.166007 343.26 
L 207.18 349.355026 
L 200.583607 360 
L 194.131353 371.16 
L 190.44 377.928662 
L 184.86 388.853846 
L 180.069283 399.06 
L 177.635017 404.64 
L 173.122034 415.8 
L 169.154064 426.96 
L 167.370383 432.54 
L 165.745907 438.12 
L 164.253455 443.7 
L 162.54 450.987719 
L 161.731502 454.86 
L 160.731086 460.44 
L 159.898467 466.02 
L 159.24549 471.6 
L 158.785141 477.18 
L 158.531687 482.76 
L 158.500844 488.34 
L 158.709957 493.92 
L 159.178222 499.5 
L 159.926941 505.08 
L 160.979812 510.66 
L 162.54 516.820635 
L 164.189005 521.82 
L 166.444324 527.4 
L 169.22426 532.98 
L 172.653988 538.56 
L 173.7 540.042609 
L 176.905442 544.14 
L 179.28 546.80458 
L 182.19542 549.72 
L 184.86 552.094558 
L 190.44 556.346012 
L 196.02 559.77574 
L 198.116854 560.88 
L 201.6 562.555676 
L 207.18 564.810995 
L 212.76 566.636715 
L 218.34 568.020188 
L 223.92 569.073059 
L 229.5 569.821778 
L 235.08 570.290043 
L 240.66 570.499156 
L 246.24 570.468313 
L 251.82 570.214859 
L 257.4 569.75451 
L 262.98 569.101533 
L 268.56 568.268914 
L 274.14 567.268498 
L 279.72 566.098141 
L 285.3 564.746545 
L 290.88 563.254093 
L 298.824176 560.88 
L 302.04 559.845936 
L 313.2 555.877966 
L 318.78 553.680756 
L 329.94 548.930717 
L 341.1 543.677627 
L 352.26 537.93165 
L 363.42 531.702676 
L 370.675676 527.4 
L 380.16 521.492256 
L 391.32 514.06689 
L 396.9 510.197627 
L 408.06 502.046801 
L 413.64 497.796587 
L 419.22 493.42872 
L 430.38 484.266323 
L 438.595618 477.18 
L 447.12 469.511111 
L 456.742966 460.44 
L 463.86 453.429588 
L 473.306545 443.7 
L 480.6 435.83451 
L 488.485017 426.96 
L 497.34 416.501646 
L 502.92 409.6 
L 511.046801 399.06 
L 515.184053 393.48 
L 519.66 387.241063 
L 526.833993 376.74 
L 530.82 370.644974 
L 537.416393 360 
L 543.868647 348.84 
L 547.56 342.071338 
L 553.14 331.146154 
L 557.930717 320.94 
L 558.835986 318.880248 
L 558.835986 318.880248 
" style="fill:none;stroke:#000000;"/>
   </g>
   <g id="LineCollection_6">
    <path clip-path="url(#p5ef1fd53d5)" d="M 448.705976 486.889196 
L 458.28 478.158842 
L 465.194576 471.6 
L 475.02 461.90602 
L 481.88241 454.86 
L 491.76 444.294077 
L 497.34 438.090476 
L 506.925552 426.96 
L 514.08 418.270498 
L 520.466565 410.22 
L 528.901223 399.06 
L 536.4 388.625532 
L 540.734347 382.32 
L 547.56 371.971429 
L 551.581571 365.58 
L 554.981493 360 
L 558.72 353.668783 
L 564.557567 343.26 
L 570.388955 332.1 
L 575.787688 320.94 
L 581.04 309.04812 
L 585.212853 298.62 
L 587.286068 293.04 
L 591.04373 281.88 
L 592.74127 276.3 
L 594.286731 270.72 
L 595.709241 265.14 
L 597.78 255.768852 
L 598.142525 253.98 
L 599.114576 248.4 
L 599.93391 242.82 
L 600.590813 237.24 
L 601.074729 231.66 
L 601.37417 226.08 
L 601.476604 220.5 
L 601.36834 214.92 
L 601.034387 209.34 
L 600.4583 203.76 
L 599.621992 198.18 
L 598.505532 192.6 
L 597.055251 187.02 
L 595.22723 181.44 
L 592.2 174.065263 
L 590.317277 170.28 
L 586.62 163.982645 
L 583.138462 159.12 
L 581.04 156.531387 
L 578.361438 153.54 
L 575.46 150.638562 
L 572.468613 147.96 
L 569.88 145.861538 
L 564.3 141.910811 
L 558.72 138.682723 
L 553.14 135.976329 
L 547.56 133.77277 
L 541.98 131.944749 
L 536.4 130.494468 
L 530.82 129.378008 
L 525.24 128.5417 
L 519.66 127.965613 
L 514.08 127.63166 
L 508.5 127.523396 
L 502.92 127.62583 
L 497.34 127.925271 
L 491.76 128.409187 
L 486.18 129.06609 
L 480.6 129.885424 
L 473.231148 131.22 
L 469.44 131.998653 
L 463.86 133.290759 
L 458.28 134.713269 
L 450.905263 136.8 
L 447.12 137.95627 
L 435.96 141.713932 
L 430.38 143.787147 
L 419.22 148.26324 
L 407.364968 153.54 
L 395.902924 159.12 
L 385.270811 164.7 
L 374.58 170.71155 
L 363.42 177.418429 
L 352.26 184.547447 
L 346.68 188.265653 
L 335.52 196.046526 
L 325.013169 203.76 
L 317.747471 209.34 
L 307.62 217.448287 
L 297.319703 226.08 
L 290.88 231.686084 
L 279.72 241.841158 
L 272.805424 248.4 
L 262.98 258.09398 
L 256.11759 265.14 
L 246.24 275.705923 
L 240.66 281.909524 
L 231.074448 293.04 
L 223.92 301.729502 
L 217.533435 309.78 
L 209.098777 320.94 
L 201.6 331.374468 
L 197.265653 337.68 
L 190.44 348.028571 
L 186.418429 354.42 
L 183.018507 360 
L 179.28 366.331217 
L 173.442433 376.74 
L 167.611045 387.9 
L 162.212312 399.06 
L 156.96 410.95188 
L 152.787147 421.38 
L 150.713932 426.96 
L 146.95627 438.12 
L 145.25873 443.7 
L 143.713269 449.28 
L 142.290759 454.86 
L 140.22 464.231148 
L 139.857475 466.02 
L 138.885424 471.6 
L 138.06609 477.18 
L 137.409187 482.76 
L 136.925271 488.34 
L 136.62583 493.92 
L 136.523396 499.5 
L 136.63166 505.08 
L 136.965613 510.66 
L 137.5417 516.24 
L 138.378008 521.82 
L 139.494468 527.4 
L 140.944749 532.98 
L 142.77277 538.56 
L 145.8 545.934737 
L 147.682723 549.72 
L 151.38 556.017355 
L 154.861538 560.88 
L 156.96 563.468613 
L 159.638562 566.46 
L 162.54 569.361438 
L 165.531387 572.04 
L 168.12 574.138462 
L 173.7 578.089189 
L 179.28 581.317277 
L 184.86 584.023671 
L 190.44 586.22723 
L 196.02 588.055251 
L 201.6 589.505532 
L 207.18 590.621992 
L 212.76 591.4583 
L 218.34 592.034387 
L 223.92 592.36834 
L 229.5 592.476604 
L 235.08 592.37417 
L 240.66 592.074729 
L 246.24 591.590813 
L 251.82 590.93391 
L 257.4 590.114576 
L 264.768852 588.78 
L 268.56 588.001347 
L 274.14 586.709241 
L 279.72 585.286731 
L 287.094737 583.2 
L 290.88 582.04373 
L 302.04 578.286068 
L 307.62 576.212853 
L 318.78 571.73676 
L 330.635032 566.46 
L 342.097076 560.88 
L 352.729189 555.3 
L 363.42 549.28845 
L 374.58 542.581571 
L 385.74 535.452553 
L 391.32 531.734347 
L 402.48 523.953474 
L 404.912899 522.196789 
L 404.912899 522.196789 
" style="fill:none;stroke:#000000;"/>
   </g>
   <g id="patch_13">
    <path d="M 90 81 
L 648 81 
" style="fill:none;stroke:#000000;stroke-linecap:square;stroke-linejoin:miter;"/>
   </g>
   <g id="patch_14">
    <path d="M 648 639 
L 648 81 
" style="fill:none;stroke:#000000;stroke-linecap:square;stroke-linejoin:miter;"/>
   </g>
   <g id="patch_15">
    <path d="M 90 639 
L 648 639 
" style="fill:none;stroke:#000000;stroke-linecap:square;stroke-linejoin:miter;"/>
   </g>
   <g id="patch_16">
    <path d="M 90 639 
L 90 81 
" style="fill:none;stroke:#000000;stroke-linecap:square;stroke-linejoin:miter;"/>
   </g>
   <g id="matplotlib.axis_1">
    <g id="xtick_1">
     <g id="line2d_1">
      <defs>
       <path d="M 0 0 
L 0 -4 
" id="m9a604abf03" style="stroke:#000000;stroke-width:0.5;"/>
      </defs>
      <g>
       <use style="stroke:#000000;stroke-width:0.5;" x="90.0" xlink:href="#m9a604abf03" y="639.0"/>
      </g>
     </g>
     <g id="line2d_2">
      <defs>
       <path d="M 0 0 
L 0 4 
" id="mf466bea153" style="stroke:#000000;stroke-width:0.5;"/>
      </defs>
      <g>
       <use style="stroke:#000000;stroke-width:0.5;" x="90.0" xlink:href="#mf466bea153" y="81.0"/>
      </g>
     </g>
     <g id="text_1">
      <!-- −1.5 -->
      <defs>
       <path d="M 10.59375 35.296875 
L 73.1875 35.296875 
L 73.1875 27.390625 
L 10.59375 27.390625 
z
" id="DejaVuSerif-2212"/>
       <path d="M 14.203125 0 
L 14.203125 5.171875 
L 26.90625 5.171875 
L 26.90625 65.828125 
L 12.203125 56.296875 
L 12.203125 62.703125 
L 29.984375 74.21875 
L 36.71875 74.21875 
L 36.71875 5.171875 
L 49.421875 5.171875 
L 49.421875 0 
z
" id="DejaVuSerif-31"/>
       <path d="M 9.421875 5.078125 
Q 9.421875 7.8125 11.28125 9.71875 
Q 13.140625 11.625 15.921875 11.625 
Q 18.609375 11.625 20.5 9.71875 
Q 22.40625 7.8125 22.40625 5.078125 
Q 22.40625 2.390625 20.5 0.484375 
Q 18.609375 -1.421875 15.921875 -1.421875 
Q 13.140625 -1.421875 11.28125 0.453125 
Q 9.421875 2.34375 9.421875 5.078125 
" id="DejaVuSerif-2e"/>
       <path d="M 50.296875 72.90625 
L 50.296875 64.890625 
L 16.890625 64.890625 
L 16.890625 44 
Q 19.4375 45.75 22.828125 46.625 
Q 26.21875 47.515625 30.421875 47.515625 
Q 42.234375 47.515625 49.0625 40.96875 
Q 55.90625 34.421875 55.90625 23.09375 
Q 55.90625 11.53125 49 5.046875 
Q 42.09375 -1.421875 29.59375 -1.421875 
Q 24.5625 -1.421875 19.28125 -0.1875 
Q 14.015625 1.03125 8.5 3.515625 
L 8.5 17.671875 
L 14.015625 17.671875 
Q 14.453125 10.75 18.421875 7.078125 
Q 22.40625 3.421875 29.59375 3.421875 
Q 37.3125 3.421875 41.453125 8.5 
Q 45.609375 13.578125 45.609375 23.09375 
Q 45.609375 32.5625 41.484375 37.609375 
Q 37.359375 42.671875 29.59375 42.671875 
Q 25.203125 42.671875 21.84375 41.109375 
Q 18.5 39.546875 15.921875 36.28125 
L 11.71875 36.28125 
L 11.71875 72.90625 
z
" id="DejaVuSerif-35"/>
      </defs>
      <g transform="translate(70.57375 655.1575)scale(0.16 -0.16)">
       <use xlink:href="#DejaVuSerif-2212"/>
       <use x="83.7890625" xlink:href="#DejaVuSerif-31"/>
       <use x="147.412109375" xlink:href="#DejaVuSerif-2e"/>
       <use x="179.19921875" xlink:href="#DejaVuSerif-35"/>
      </g>
     </g>
    </g>
    <g id="xtick_2">
     <g id="line2d_3">
      <g>
       <use style="stroke:#000000;stroke-width:0.5;" x="183.0" xlink:href="#m9a604abf03" y="639.0"/>
      </g>
     </g>
     <g id="line2d_4">
      <g>
       <use style="stroke:#000000;stroke-width:0.5;" x="183.0" xlink:href="#mf466bea153" y="81.0"/>
      </g>
     </g>
     <g id="text_2">
      <!-- −1.0 -->
      <defs>
       <path d="M 31.78125 3.421875 
Q 39.265625 3.421875 42.96875 11.625 
Q 46.6875 19.828125 46.6875 36.375 
Q 46.6875 52.984375 42.96875 61.1875 
Q 39.265625 69.390625 31.78125 69.390625 
Q 24.3125 69.390625 20.59375 61.1875 
Q 16.890625 52.984375 16.890625 36.375 
Q 16.890625 19.828125 20.59375 11.625 
Q 24.3125 3.421875 31.78125 3.421875 
M 31.78125 -1.421875 
Q 19.921875 -1.421875 13.25 8.53125 
Q 6.59375 18.5 6.59375 36.375 
Q 6.59375 54.296875 13.25 64.25 
Q 19.921875 74.21875 31.78125 74.21875 
Q 43.703125 74.21875 50.34375 64.25 
Q 56.984375 54.296875 56.984375 36.375 
Q 56.984375 18.5 50.34375 8.53125 
Q 43.703125 -1.421875 31.78125 -1.421875 
" id="DejaVuSerif-30"/>
      </defs>
      <g transform="translate(163.57375 655.1575)scale(0.16 -0.16)">
       <use xlink:href="#DejaVuSerif-2212"/>
       <use x="83.7890625" xlink:href="#DejaVuSerif-31"/>
       <use x="147.412109375" xlink:href="#DejaVuSerif-2e"/>
       <use x="179.19921875" xlink:href="#DejaVuSerif-30"/>
      </g>
     </g>
    </g>
    <g id="xtick_3">
     <g id="line2d_5">
      <g>
       <use style="stroke:#000000;stroke-width:0.5;" x="276.0" xlink:href="#m9a604abf03" y="639.0"/>
      </g>
     </g>
     <g id="line2d_6">
      <g>
       <use style="stroke:#000000;stroke-width:0.5;" x="276.0" xlink:href="#mf466bea153" y="81.0"/>
      </g>
     </g>
     <g id="text_3">
      <!-- −0.5 -->
      <g transform="translate(256.57375 655.1575)scale(0.16 -0.16)">
       <use xlink:href="#DejaVuSerif-2212"/>
       <use x="83.7890625" xlink:href="#DejaVuSerif-30"/>
       <use x="147.412109375" xlink:href="#DejaVuSerif-2e"/>
       <use x="179.19921875" xlink:href="#DejaVuSerif-35"/>
      </g>
     </g>
    </g>
    <g id="xtick_4">
     <g id="line2d_7">
      <g>
       <use style="stroke:#000000;stroke-width:0.5;" x="369.0" xlink:href="#m9a604abf03" y="639.0"/>
      </g>
     </g>
     <g id="line2d_8">
      <g>
       <use style="stroke:#000000;stroke-width:0.5;" x="369.0" xlink:href="#mf466bea153" y="81.0"/>
      </g>
     </g>
     <g id="text_4">
      <!-- 0.0 -->
      <g transform="translate(356.2775 655.1575)scale(0.16 -0.16)">
       <use xlink:href="#DejaVuSerif-30"/>
       <use x="63.623046875" xlink:href="#DejaVuSerif-2e"/>
       <use x="95.41015625" xlink:href="#DejaVuSerif-30"/>
      </g>
     </g>
    </g>
    <g id="xtick_5">
     <g id="line2d_9">
      <g>
       <use style="stroke:#000000;stroke-width:0.5;" x="462.0" xlink:href="#m9a604abf03" y="639.0"/>
      </g>
     </g>
     <g id="line2d_10">
      <g>
       <use style="stroke:#000000;stroke-width:0.5;" x="462.0" xlink:href="#mf466bea153" y="81.0"/>
      </g>
     </g>
     <g id="text_5">
      <!-- 0.5 -->
      <g transform="translate(449.2775 655.1575)scale(0.16 -0.16)">
       <use xlink:href="#DejaVuSerif-30"/>
       <use x="63.623046875" xlink:href="#DejaVuSerif-2e"/>
       <use x="95.41015625" xlink:href="#DejaVuSerif-35"/>
      </g>
     </g>
    </g>
    <g id="xtick_6">
     <g id="line2d_11">
      <g>
       <use style="stroke:#000000;stroke-width:0.5;" x="555.0" xlink:href="#m9a604abf03" y="639.0"/>
      </g>
     </g>
     <g id="line2d_12">
      <g>
       <use style="stroke:#000000;stroke-width:0.5;" x="555.0" xlink:href="#mf466bea153" y="81.0"/>
      </g>
     </g>
     <g id="text_6">
      <!-- 1.0 -->
      <g transform="translate(542.2775 655.1575)scale(0.16 -0.16)">
       <use xlink:href="#DejaVuSerif-31"/>
       <use x="63.623046875" xlink:href="#DejaVuSerif-2e"/>
       <use x="95.41015625" xlink:href="#DejaVuSerif-30"/>
      </g>
     </g>
    </g>
    <g id="xtick_7">
     <g id="line2d_13">
      <g>
       <use style="stroke:#000000;stroke-width:0.5;" x="648.0" xlink:href="#m9a604abf03" y="639.0"/>
      </g>
     </g>
     <g id="line2d_14">
      <g>
       <use style="stroke:#000000;stroke-width:0.5;" x="648.0" xlink:href="#mf466bea153" y="81.0"/>
      </g>
     </g>
     <g id="text_7">
      <!-- 1.5 -->
      <g transform="translate(635.2775 655.1575)scale(0.16 -0.16)">
       <use xlink:href="#DejaVuSerif-31"/>
       <use x="63.623046875" xlink:href="#DejaVuSerif-2e"/>
       <use x="95.41015625" xlink:href="#DejaVuSerif-35"/>
      </g>
     </g>
    </g>
    <g id="text_8">
     <!-- $x$ -->
     <defs>
      <path d="M 7.8125 2.875 
Q 9.578125 1.515625 12.796875 1.515625 
Q 15.921875 1.515625 18.3125 4.515625 
Q 20.703125 7.515625 21.578125 11.078125 
L 26.125 28.8125 
Q 27.203125 33.640625 27.203125 35.40625 
Q 27.203125 37.890625 25.8125 39.75 
Q 24.421875 41.609375 21.921875 41.609375 
Q 18.75 41.609375 15.96875 39.625 
Q 13.1875 37.640625 11.28125 34.59375 
Q 9.375 31.546875 8.59375 28.421875 
Q 8.40625 27.78125 7.8125 27.78125 
L 6.59375 27.78125 
Q 5.8125 27.78125 5.8125 28.71875 
L 5.8125 29 
Q 6.78125 32.71875 9.125 36.25 
Q 11.46875 39.796875 14.859375 41.984375 
Q 18.265625 44.1875 22.125 44.1875 
Q 25.78125 44.1875 28.734375 42.234375 
Q 31.6875 40.28125 32.90625 36.921875 
Q 34.625 39.984375 37.28125 42.078125 
Q 39.9375 44.1875 43.109375 44.1875 
Q 45.265625 44.1875 47.5 43.421875 
Q 49.75 42.671875 51.171875 41.109375 
Q 52.59375 39.546875 52.59375 37.203125 
Q 52.59375 34.671875 50.953125 32.828125 
Q 49.3125 31 46.78125 31 
Q 45.171875 31 44.09375 32.03125 
Q 43.015625 33.0625 43.015625 34.625 
Q 43.015625 36.71875 44.453125 38.296875 
Q 45.90625 39.890625 47.90625 40.1875 
Q 46.09375 41.609375 42.921875 41.609375 
Q 39.703125 41.609375 37.328125 38.625 
Q 34.96875 35.640625 33.984375 31.984375 
L 29.59375 14.3125 
Q 28.515625 10.296875 28.515625 7.71875 
Q 28.515625 5.171875 29.953125 3.34375 
Q 31.390625 1.515625 33.796875 1.515625 
Q 38.484375 1.515625 42.15625 5.640625 
Q 45.84375 9.765625 47.015625 14.703125 
Q 47.21875 15.28125 47.796875 15.28125 
L 49.03125 15.28125 
Q 49.421875 15.28125 49.65625 15.015625 
Q 49.90625 14.75 49.90625 14.40625 
Q 49.90625 14.3125 49.8125 14.109375 
Q 48.390625 8.15625 43.84375 3.515625 
Q 39.3125 -1.125 33.59375 -1.125 
Q 29.9375 -1.125 26.984375 0.84375 
Q 24.03125 2.828125 22.796875 6.203125 
Q 21.234375 3.265625 18.46875 1.0625 
Q 15.71875 -1.125 12.59375 -1.125 
Q 10.453125 -1.125 8.171875 -0.359375 
Q 5.90625 0.390625 4.484375 1.953125 
Q 3.078125 3.515625 3.078125 5.90625 
Q 3.078125 8.25 4.703125 10.171875 
Q 6.34375 12.109375 8.796875 12.109375 
Q 10.453125 12.109375 11.578125 11.109375 
Q 12.703125 10.109375 12.703125 8.5 
Q 12.703125 6.390625 11.296875 4.828125 
Q 9.90625 3.265625 7.8125 2.875 
" id="Cmmi10-78"/>
     </defs>
     <g transform="translate(363.78 677.1621875)scale(0.18 -0.18)">
      <use transform="translate(0.0 0.8125)" xlink:href="#Cmmi10-78"/>
     </g>
    </g>
   </g>
   <g id="matplotlib.axis_2">
    <g id="ytick_1">
     <g id="line2d_15">
      <defs>
       <path d="M 0 0 
L 4 0 
" id="m494e762ca8" style="stroke:#000000;stroke-width:0.5;"/>
      </defs>
      <g>
       <use style="stroke:#000000;stroke-width:0.5;" x="90.0" xlink:href="#m494e762ca8" y="639.0"/>
      </g>
     </g>
     <g id="line2d_16">
      <defs>
       <path d="M 0 0 
L -4 0 
" id="m006aa69a71" style="stroke:#000000;stroke-width:0.5;"/>
      </defs>
      <g>
       <use style="stroke:#000000;stroke-width:0.5;" x="648.0" xlink:href="#m006aa69a71" y="639.0"/>
      </g>
     </g>
     <g id="text_9">
      <!-- −1.5 -->
      <g transform="translate(47.1475 643.415)scale(0.16 -0.16)">
       <use xlink:href="#DejaVuSerif-2212"/>
       <use x="83.7890625" xlink:href="#DejaVuSerif-31"/>
       <use x="147.412109375" xlink:href="#DejaVuSerif-2e"/>
       <use x="179.19921875" xlink:href="#DejaVuSerif-35"/>
      </g>
     </g>
    </g>
    <g id="ytick_2">
     <g id="line2d_17">
      <g>
       <use style="stroke:#000000;stroke-width:0.5;" x="90.0" xlink:href="#m494e762ca8" y="546.0"/>
      </g>
     </g>
     <g id="line2d_18">
      <g>
       <use style="stroke:#000000;stroke-width:0.5;" x="648.0" xlink:href="#m006aa69a71" y="546.0"/>
      </g>
     </g>
     <g id="text_10">
      <!-- −1.0 -->
      <g transform="translate(47.1475 550.415)scale(0.16 -0.16)">
       <use xlink:href="#DejaVuSerif-2212"/>
       <use x="83.7890625" xlink:href="#DejaVuSerif-31"/>
       <use x="147.412109375" xlink:href="#DejaVuSerif-2e"/>
       <use x="179.19921875" xlink:href="#DejaVuSerif-30"/>
      </g>
     </g>
    </g>
    <g id="ytick_3">
     <g id="line2d_19">
      <g>
       <use style="stroke:#000000;stroke-width:0.5;" x="90.0" xlink:href="#m494e762ca8" y="453.0"/>
      </g>
     </g>
     <g id="line2d_20">
      <g>
       <use style="stroke:#000000;stroke-width:0.5;" x="648.0" xlink:href="#m006aa69a71" y="453.0"/>
      </g>
     </g>
     <g id="text_11">
      <!-- −0.5 -->
      <g transform="translate(47.1475 457.415)scale(0.16 -0.16)">
       <use xlink:href="#DejaVuSerif-2212"/>
       <use x="83.7890625" xlink:href="#DejaVuSerif-30"/>
       <use x="147.412109375" xlink:href="#DejaVuSerif-2e"/>
       <use x="179.19921875" xlink:href="#DejaVuSerif-35"/>
      </g>
     </g>
    </g>
    <g id="ytick_4">
     <g id="line2d_21">
      <g>
       <use style="stroke:#000000;stroke-width:0.5;" x="90.0" xlink:href="#m494e762ca8" y="360.0"/>
      </g>
     </g>
     <g id="line2d_22">
      <g>
       <use style="stroke:#000000;stroke-width:0.5;" x="648.0" xlink:href="#m006aa69a71" y="360.0"/>
      </g>
     </g>
     <g id="text_12">
      <!-- 0.0 -->
      <g transform="translate(60.555 364.415)scale(0.16 -0.16)">
       <use xlink:href="#DejaVuSerif-30"/>
       <use x="63.623046875" xlink:href="#DejaVuSerif-2e"/>
       <use x="95.41015625" xlink:href="#DejaVuSerif-30"/>
      </g>
     </g>
    </g>
    <g id="ytick_5">
     <g id="line2d_23">
      <g>
       <use style="stroke:#000000;stroke-width:0.5;" x="90.0" xlink:href="#m494e762ca8" y="267.0"/>
      </g>
     </g>
     <g id="line2d_24">
      <g>
       <use style="stroke:#000000;stroke-width:0.5;" x="648.0" xlink:href="#m006aa69a71" y="267.0"/>
      </g>
     </g>
     <g id="text_13">
      <!-- 0.5 -->
      <g transform="translate(60.555 271.415)scale(0.16 -0.16)">
       <use xlink:href="#DejaVuSerif-30"/>
       <use x="63.623046875" xlink:href="#DejaVuSerif-2e"/>
       <use x="95.41015625" xlink:href="#DejaVuSerif-35"/>
      </g>
     </g>
    </g>
    <g id="ytick_6">
     <g id="line2d_25">
      <g>
       <use style="stroke:#000000;stroke-width:0.5;" x="90.0" xlink:href="#m494e762ca8" y="174.0"/>
      </g>
     </g>
     <g id="line2d_26">
      <g>
       <use style="stroke:#000000;stroke-width:0.5;" x="648.0" xlink:href="#m006aa69a71" y="174.0"/>
      </g>
     </g>
     <g id="text_14">
      <!-- 1.0 -->
      <g transform="translate(60.555 178.415)scale(0.16 -0.16)">
       <use xlink:href="#DejaVuSerif-31"/>
       <use x="63.623046875" xlink:href="#DejaVuSerif-2e"/>
       <use x="95.41015625" xlink:href="#DejaVuSerif-30"/>
      </g>
     </g>
    </g>
    <g id="ytick_7">
     <g id="line2d_27">
      <g>
       <use style="stroke:#000000;stroke-width:0.5;" x="90.0" xlink:href="#m494e762ca8" y="81.0"/>
      </g>
     </g>
     <g id="line2d_28">
      <g>
       <use style="stroke:#000000;stroke-width:0.5;" x="648.0" xlink:href="#m006aa69a71" y="81.0"/>
      </g>
     </g>
     <g id="text_15">
      <!-- 1.5 -->
      <g transform="translate(60.555 85.415)scale(0.16 -0.16)">
       <use xlink:href="#DejaVuSerif-31"/>
       <use x="63.623046875" xlink:href="#DejaVuSerif-2e"/>
       <use x="95.41015625" xlink:href="#DejaVuSerif-35"/>
      </g>
     </g>
    </g>
    <g id="text_16">
     <!-- $y$ -->
     <defs>
      <path d="M 8.40625 -14.3125 
Q 10.5 -17.921875 15.71875 -17.921875 
Q 20.453125 -17.921875 23.921875 -14.59375 
Q 27.390625 -11.28125 29.515625 -6.5625 
Q 31.640625 -1.859375 32.8125 3.078125 
Q 28.375 -1.125 23.1875 -1.125 
Q 19.234375 -1.125 16.453125 0.234375 
Q 13.671875 1.609375 12.125 4.3125 
Q 10.59375 7.03125 10.59375 10.890625 
Q 10.59375 14.15625 11.46875 17.59375 
Q 12.359375 21.046875 13.9375 25.265625 
Q 15.53125 29.5 16.703125 32.625 
Q 18.015625 36.28125 18.015625 38.625 
Q 18.015625 41.609375 15.828125 41.609375 
Q 11.859375 41.609375 9.296875 37.53125 
Q 6.734375 33.453125 5.515625 28.421875 
Q 5.328125 27.78125 4.6875 27.78125 
L 3.515625 27.78125 
Q 2.6875 27.78125 2.6875 28.71875 
L 2.6875 29 
Q 4.296875 34.96875 7.609375 39.578125 
Q 10.9375 44.1875 16.015625 44.1875 
Q 19.578125 44.1875 22.046875 41.84375 
Q 24.515625 39.5 24.515625 35.890625 
Q 24.515625 34.03125 23.6875 31.984375 
Q 23.25 30.765625 21.6875 26.65625 
Q 20.125 22.5625 19.28125 19.875 
Q 18.453125 17.1875 17.921875 14.59375 
Q 17.390625 12.015625 17.390625 9.421875 
Q 17.390625 6.109375 18.796875 3.8125 
Q 20.21875 1.515625 23.296875 1.515625 
Q 29.5 1.515625 34.421875 9.078125 
L 42 39.890625 
Q 42.328125 41.21875 43.546875 42.15625 
Q 44.78125 43.109375 46.1875 43.109375 
Q 47.40625 43.109375 48.3125 42.328125 
Q 49.21875 41.546875 49.21875 40.28125 
Q 49.21875 39.703125 49.125 39.5 
L 39.203125 -0.296875 
Q 37.890625 -5.421875 34.375 -10.109375 
Q 30.859375 -14.796875 25.90625 -17.65625 
Q 20.953125 -20.515625 15.578125 -20.515625 
Q 12.984375 -20.515625 10.4375 -19.5 
Q 7.90625 -18.5 6.34375 -16.5 
Q 4.78125 -14.5 4.78125 -11.8125 
Q 4.78125 -9.078125 6.390625 -7.078125 
Q 8.015625 -5.078125 10.6875 -5.078125 
Q 12.3125 -5.078125 13.40625 -6.078125 
Q 14.5 -7.078125 14.5 -8.6875 
Q 14.5 -10.984375 12.78125 -12.6875 
Q 11.078125 -14.40625 8.796875 -14.40625 
Q 8.6875 -14.359375 8.59375 -14.328125 
Q 8.5 -14.3125 8.40625 -14.3125 
" id="Cmmi10-79"/>
     </defs>
     <g transform="translate(38.3675 364.5)rotate(-90.0)scale(0.18 -0.18)">
      <use transform="translate(0.0 0.8125)" xlink:href="#Cmmi10-79"/>
     </g>
    </g>
   </g>
   <g id="text_17">
    <g clip-path="url(#p5ef1fd53d5)">
     <!-- 0.500 -->
     <g transform="translate(370.685019237 424.976856955)rotate(-38.8880240642)scale(0.16 -0.16)">
      <use xlink:href="#DejaVuSerif-30"/>
      <use x="63.623046875" xlink:href="#DejaVuSerif-2e"/>
      <use x="95.41015625" xlink:href="#DejaVuSerif-35"/>
      <use x="159.033203125" xlink:href="#DejaVuSerif-30"/>
      <use x="222.65625" xlink:href="#DejaVuSerif-30"/>
     </g>
    </g>
   </g>
   <g id="text_18">
    <g clip-path="url(#p5ef1fd53d5)">
     <!-- 1.400 -->
     <defs>
      <path d="M 34.90625 24.703125 
L 34.90625 63.484375 
L 10.015625 24.703125 
z
M 56.390625 0 
L 23.1875 0 
L 23.1875 5.171875 
L 34.90625 5.171875 
L 34.90625 19.484375 
L 3.078125 19.484375 
L 3.078125 24.8125 
L 35.015625 74.21875 
L 44.671875 74.21875 
L 44.671875 24.703125 
L 58.59375 24.703125 
L 58.59375 19.484375 
L 44.671875 19.484375 
L 44.671875 5.171875 
L 56.390625 5.171875 
z
" id="DejaVuSerif-34"/>
     </defs>
     <g transform="translate(331.607422301 293.73408124)rotate(-37.4602973294)scale(0.16 -0.16)">
      <use xlink:href="#DejaVuSerif-31"/>
      <use x="63.623046875" xlink:href="#DejaVuSerif-2e"/>
      <use x="95.41015625" xlink:href="#DejaVuSerif-34"/>
      <use x="159.033203125" xlink:href="#DejaVuSerif-30"/>
      <use x="222.65625" xlink:href="#DejaVuSerif-30"/>
     </g>
    </g>
   </g>
   <g id="text_19">
    <g clip-path="url(#p5ef1fd53d5)">
     <!-- 2.300 -->
     <defs>
      <path d="M 12.796875 55.515625 
L 7.328125 55.515625 
L 7.328125 68.5 
Q 12.546875 71.296875 17.84375 72.75 
Q 23.140625 74.21875 28.21875 74.21875 
Q 39.59375 74.21875 46.1875 68.703125 
Q 52.78125 63.1875 52.78125 53.71875 
Q 52.78125 43.015625 37.84375 28.125 
Q 36.671875 27 36.078125 26.421875 
L 17.671875 8.015625 
L 48.09375 8.015625 
L 48.09375 17 
L 53.8125 17 
L 53.8125 0 
L 6.78125 0 
L 6.78125 5.328125 
L 28.90625 27.390625 
Q 36.234375 34.71875 39.359375 40.84375 
Q 42.484375 46.96875 42.484375 53.71875 
Q 42.484375 61.078125 38.640625 65.234375 
Q 34.8125 69.390625 28.078125 69.390625 
Q 21.09375 69.390625 17.28125 65.921875 
Q 13.484375 62.453125 12.796875 55.515625 
" id="DejaVuSerif-32"/>
      <path d="M 9.71875 69.828125 
Q 15.4375 71.96875 20.671875 73.09375 
Q 25.921875 74.21875 30.515625 74.21875 
Q 41.21875 74.21875 47.21875 69.59375 
Q 53.21875 64.984375 53.21875 56.78125 
Q 53.21875 50.203125 49.0625 45.78125 
Q 44.921875 41.359375 37.3125 39.796875 
Q 46.296875 38.53125 51.25 33.28125 
Q 56.203125 28.03125 56.203125 19.671875 
Q 56.203125 9.46875 49.34375 4.015625 
Q 42.484375 -1.421875 29.59375 -1.421875 
Q 23.875 -1.421875 18.421875 -0.1875 
Q 12.984375 1.03125 7.625 3.515625 
L 7.625 17.671875 
L 13.09375 17.671875 
Q 13.578125 10.640625 17.828125 7.03125 
Q 22.078125 3.421875 29.78125 3.421875 
Q 37.25 3.421875 41.578125 7.734375 
Q 45.90625 12.0625 45.90625 19.578125 
Q 45.90625 28.171875 41.453125 32.59375 
Q 37.015625 37.015625 28.421875 37.015625 
L 23.78125 37.015625 
L 23.78125 42 
L 26.21875 42 
Q 34.765625 42 39.03125 45.53125 
Q 43.3125 49.078125 43.3125 56.203125 
Q 43.3125 62.59375 39.796875 65.984375 
Q 36.28125 69.390625 29.6875 69.390625 
Q 23.09375 69.390625 19.453125 66.265625 
Q 15.828125 63.140625 15.1875 56.984375 
L 9.71875 56.984375 
z
" id="DejaVuSerif-33"/>
     </defs>
     <g transform="translate(273.491816322 323.439902868)rotate(-48.6734365759)scale(0.16 -0.16)">
      <use xlink:href="#DejaVuSerif-32"/>
      <use x="63.623046875" xlink:href="#DejaVuSerif-2e"/>
      <use x="95.41015625" xlink:href="#DejaVuSerif-33"/>
      <use x="159.033203125" xlink:href="#DejaVuSerif-30"/>
      <use x="222.65625" xlink:href="#DejaVuSerif-30"/>
     </g>
    </g>
   </g>
   <g id="text_20">
    <g clip-path="url(#p5ef1fd53d5)">
     <!-- 3.200 -->
     <g transform="translate(444.682980015 457.833351427)rotate(-46.7810218617)scale(0.16 -0.16)">
      <use xlink:href="#DejaVuSerif-33"/>
      <use x="63.623046875" xlink:href="#DejaVuSerif-2e"/>
      <use x="95.41015625" xlink:href="#DejaVuSerif-32"/>
      <use x="159.033203125" xlink:href="#DejaVuSerif-30"/>
      <use x="222.65625" xlink:href="#DejaVuSerif-30"/>
     </g>
    </g>
   </g>
   <g id="text_21">
    <g clip-path="url(#p5ef1fd53d5)">
     <!-- 4.100 -->
     <g transform="translate(566.102161063 316.202219846)rotate(-72.3330034147)scale(0.16 -0.16)">
      <use xlink:href="#DejaVuSerif-34"/>
      <use x="63.623046875" xlink:href="#DejaVuSerif-2e"/>
      <use x="95.41015625" xlink:href="#DejaVuSerif-31"/>
      <use x="159.033203125" xlink:href="#DejaVuSerif-30"/>
      <use x="222.65625" xlink:href="#DejaVuSerif-30"/>
     </g>
    </g>
   </g>
   <g id="text_22">
    <g clip-path="url(#p5ef1fd53d5)">
     <!-- 5.000 -->
     <g transform="translate(412.493766663 523.126189064)rotate(-39.7771366344)scale(0.16 -0.16)">
      <use xlink:href="#DejaVuSerif-35"/>
      <use x="63.623046875" xlink:href="#DejaVuSerif-2e"/>
      <use x="95.41015625" xlink:href="#DejaVuSerif-30"/>
      <use x="159.033203125" xlink:href="#DejaVuSerif-30"/>
      <use x="222.65625" xlink:href="#DejaVuSerif-30"/>
     </g>
    </g>
   </g>
   <g id="text_23">
    <!-- $f(x,y) = 5x^2 - 6xy + 5y^2$ -->
    <defs>
     <path d="M 4.984375 0 
L 4.984375 2.6875 
Q 4.984375 2.9375 5.171875 3.21875 
L 20.703125 20.40625 
Q 24.21875 24.21875 26.40625 26.796875 
Q 28.609375 29.390625 30.75 32.765625 
Q 32.90625 36.140625 34.15625 39.625 
Q 35.40625 43.109375 35.40625 47.015625 
Q 35.40625 51.125 33.890625 54.859375 
Q 32.375 58.59375 29.375 60.84375 
Q 26.375 63.09375 22.125 63.09375 
Q 17.78125 63.09375 14.3125 60.46875 
Q 10.84375 57.859375 9.421875 53.71875 
Q 9.8125 53.8125 10.5 53.8125 
Q 12.75 53.8125 14.328125 52.296875 
Q 15.921875 50.78125 15.921875 48.390625 
Q 15.921875 46.09375 14.328125 44.5 
Q 12.75 42.921875 10.5 42.921875 
Q 8.15625 42.921875 6.5625 44.546875 
Q 4.984375 46.1875 4.984375 48.390625 
Q 4.984375 52.15625 6.390625 55.4375 
Q 7.8125 58.734375 10.46875 61.296875 
Q 13.140625 63.875 16.484375 65.234375 
Q 19.828125 66.609375 23.578125 66.609375 
Q 29.296875 66.609375 34.21875 64.1875 
Q 39.15625 61.765625 42.03125 57.34375 
Q 44.921875 52.9375 44.921875 47.015625 
Q 44.921875 42.671875 43.015625 38.765625 
Q 41.109375 34.859375 38.125 31.65625 
Q 35.15625 28.46875 30.515625 24.40625 
Q 25.875 20.359375 24.421875 19 
L 13.09375 8.109375 
L 22.703125 8.109375 
Q 29.78125 8.109375 34.546875 8.21875 
Q 39.3125 8.34375 39.59375 8.59375 
Q 40.765625 9.859375 42 17.828125 
L 44.921875 17.828125 
L 42.09375 0 
z
" id="Cmr10-32"/>
     <path d="M 10.203125 23 
Q 9.375 23 8.828125 23.625 
Q 8.296875 24.265625 8.296875 25 
Q 8.296875 25.734375 8.828125 26.359375 
Q 9.375 27 10.203125 27 
L 67.578125 27 
Q 68.359375 27 68.875 26.359375 
Q 69.390625 25.734375 69.390625 25 
Q 69.390625 24.265625 68.875 23.625 
Q 68.359375 23 67.578125 23 
z
" id="Cmsy10-a1"/>
     <path d="M 25 -2.203125 
Q 18.796875 -2.203125 14.640625 1.09375 
Q 10.5 4.390625 8.21875 9.640625 
Q 5.953125 14.890625 5.078125 20.65625 
Q 4.203125 26.421875 4.203125 32.328125 
Q 4.203125 40.234375 7.28125 48.1875 
Q 10.359375 56.15625 16.328125 61.375 
Q 22.3125 66.609375 30.515625 66.609375 
Q 33.9375 66.609375 36.890625 65.3125 
Q 39.84375 64.015625 41.53125 61.5 
Q 43.21875 58.984375 43.21875 55.421875 
Q 43.21875 53.375 41.828125 51.984375 
Q 40.4375 50.59375 38.375 50.59375 
Q 36.421875 50.59375 35 52 
Q 33.59375 53.421875 33.59375 55.421875 
Q 33.59375 57.375 35 58.78125 
Q 36.421875 60.203125 38.375 60.203125 
L 38.921875 60.203125 
Q 37.640625 62.015625 35.328125 62.859375 
Q 33.015625 63.71875 30.515625 63.71875 
Q 27.484375 63.71875 24.921875 62.390625 
Q 22.359375 61.078125 20.3125 58.828125 
Q 18.265625 56.59375 16.890625 53.875 
Q 15.53125 51.171875 14.765625 47.703125 
Q 14.015625 44.234375 13.8125 41.203125 
Q 13.625 38.1875 13.625 33.59375 
Q 15.375 37.703125 18.59375 40.3125 
Q 21.828125 42.921875 25.875 42.921875 
Q 30.328125 42.921875 33.984375 41.109375 
Q 37.640625 39.3125 40.28125 36.109375 
Q 42.921875 32.90625 44.3125 28.796875 
Q 45.703125 24.703125 45.703125 20.515625 
Q 45.703125 14.65625 43.09375 9.34375 
Q 40.484375 4.046875 35.734375 0.921875 
Q 31 -2.203125 25 -2.203125 
M 25 0.984375 
Q 28.859375 0.984375 31.203125 2.734375 
Q 33.546875 4.5 34.640625 7.390625 
Q 35.75 10.296875 36.015625 13.25 
Q 36.28125 16.21875 36.28125 20.515625 
Q 36.28125 26.171875 35.734375 30.171875 
Q 35.203125 34.1875 32.8125 37.234375 
Q 30.421875 40.28125 25.484375 40.28125 
Q 21.4375 40.28125 18.828125 37.546875 
Q 16.21875 34.8125 15.015625 30.640625 
Q 13.8125 26.46875 13.8125 22.609375 
Q 13.8125 21.296875 13.921875 20.609375 
Q 13.921875 20.453125 13.890625 20.359375 
Q 13.875 20.265625 13.8125 20.125 
Q 13.8125 15.828125 14.6875 11.421875 
Q 15.578125 7.03125 18.0625 4 
Q 20.5625 0.984375 25 0.984375 
" id="Cmr10-36"/>
     <path d="M 8.6875 11.375 
Q 9.71875 8.453125 11.84375 6.046875 
Q 13.96875 3.65625 16.875 2.3125 
Q 19.78125 0.984375 22.90625 0.984375 
Q 30.125 0.984375 32.859375 6.59375 
Q 35.59375 12.203125 35.59375 20.21875 
Q 35.59375 23.6875 35.46875 26.046875 
Q 35.359375 28.421875 34.8125 30.609375 
Q 33.890625 34.125 31.5625 36.765625 
Q 29.25 39.40625 25.875 39.40625 
Q 22.515625 39.40625 20.09375 38.375 
Q 17.671875 37.359375 16.15625 35.984375 
Q 14.65625 34.625 13.484375 33.109375 
Q 12.3125 31.59375 12.015625 31.5 
L 10.890625 31.5 
Q 10.640625 31.5 10.265625 31.8125 
Q 9.90625 32.125 9.90625 32.421875 
L 9.90625 65.828125 
Q 9.90625 66.0625 10.21875 66.328125 
Q 10.546875 66.609375 10.890625 66.609375 
L 11.1875 66.609375 
Q 17.921875 63.375 25.484375 63.375 
Q 32.90625 63.375 39.796875 66.609375 
L 40.09375 66.609375 
Q 40.4375 66.609375 40.71875 66.359375 
Q 41.015625 66.109375 41.015625 65.828125 
L 41.015625 64.890625 
Q 41.015625 64.40625 40.828125 64.40625 
Q 37.40625 59.859375 32.25 57.3125 
Q 27.09375 54.78125 21.578125 54.78125 
Q 17.578125 54.78125 13.375 55.90625 
L 13.375 37.015625 
Q 16.703125 39.703125 19.3125 40.84375 
Q 21.921875 42 25.984375 42 
Q 31.5 42 35.859375 38.8125 
Q 40.234375 35.640625 42.578125 30.53125 
Q 44.921875 25.4375 44.921875 20.125 
Q 44.921875 14.109375 41.96875 8.984375 
Q 39.015625 3.859375 33.9375 0.828125 
Q 28.859375 -2.203125 22.90625 -2.203125 
Q 17.96875 -2.203125 13.84375 0.328125 
Q 9.71875 2.875 7.34375 7.171875 
Q 4.984375 11.46875 4.984375 16.3125 
Q 4.984375 18.5625 6.4375 19.96875 
Q 7.90625 21.390625 10.109375 21.390625 
Q 12.3125 21.390625 13.796875 19.9375 
Q 15.28125 18.5 15.28125 16.3125 
Q 15.28125 14.15625 13.796875 12.671875 
Q 12.3125 11.1875 10.109375 11.1875 
Q 9.765625 11.1875 9.328125 11.25 
Q 8.890625 11.328125 8.6875 11.375 
" id="Cmr10-35"/>
     <path d="M 31 -24.8125 
Q 25.4375 -20.40625 21.40625 -14.71875 
Q 17.390625 -9.03125 14.8125 -2.578125 
Q 12.25 3.859375 10.984375 10.890625 
Q 9.71875 17.921875 9.71875 25 
Q 9.71875 32.171875 10.984375 39.203125 
Q 12.25 46.234375 14.859375 52.734375 
Q 17.484375 59.234375 21.53125 64.890625 
Q 25.59375 70.5625 31 74.8125 
Q 31 75 31.5 75 
L 32.421875 75 
Q 32.71875 75 32.953125 74.734375 
Q 33.203125 74.46875 33.203125 74.125 
Q 33.203125 73.6875 33.015625 73.484375 
Q 28.125 68.703125 24.875 63.234375 
Q 21.625 57.765625 19.640625 51.578125 
Q 17.671875 45.40625 16.796875 38.78125 
Q 15.921875 32.171875 15.921875 25 
Q 15.921875 -6.78125 32.90625 -23.296875 
Q 33.203125 -23.578125 33.203125 -24.125 
Q 33.203125 -24.359375 32.9375 -24.671875 
Q 32.671875 -25 32.421875 -25 
L 31.5 -25 
Q 31 -25 31 -24.8125 
" id="Cmr10-28"/>
     <path d="M 6.5 -25 
Q 5.609375 -25 5.609375 -24.125 
Q 5.609375 -23.6875 5.8125 -23.484375 
Q 22.90625 -6.78125 22.90625 25 
Q 22.90625 56.78125 6 73.296875 
Q 5.609375 73.53125 5.609375 74.125 
Q 5.609375 74.46875 5.875 74.734375 
Q 6.15625 75 6.5 75 
L 7.421875 75 
Q 7.71875 75 7.90625 74.8125 
Q 15.09375 69.140625 19.875 61.03125 
Q 24.65625 52.9375 26.875 43.75 
Q 29.109375 34.578125 29.109375 25 
Q 29.109375 17.921875 27.90625 11.0625 
Q 26.703125 4.203125 24.09375 -2.453125 
Q 21.484375 -9.125 17.484375 -14.765625 
Q 13.484375 -20.40625 7.90625 -24.8125 
Q 7.71875 -25 7.421875 -25 
z
" id="Cmr10-29"/>
     <path d="M 9.71875 -16.5 
Q 11.578125 -17.921875 14.203125 -17.921875 
Q 17.78125 -17.921875 20.015625 -10.015625 
Q 20.953125 -6.203125 25.09375 15.09375 
L 29.6875 39.59375 
L 21.09375 39.59375 
Q 20.125 39.59375 20.125 40.921875 
Q 20.515625 43.109375 21.390625 43.109375 
L 30.328125 43.109375 
L 31.5 49.609375 
Q 32.078125 52.640625 32.5625 54.8125 
Q 33.0625 56.984375 33.625 58.828125 
Q 34.1875 60.6875 35.296875 62.984375 
Q 37.015625 66.265625 39.921875 68.390625 
Q 42.828125 70.515625 46.1875 70.515625 
Q 48.390625 70.515625 50.46875 69.703125 
Q 52.546875 68.890625 53.859375 67.28125 
Q 55.171875 65.671875 55.171875 63.484375 
Q 55.171875 60.9375 53.484375 59.046875 
Q 51.8125 57.171875 49.421875 57.171875 
Q 47.796875 57.171875 46.65625 58.171875 
Q 45.515625 59.1875 45.515625 60.796875 
Q 45.515625 62.984375 47 64.625 
Q 48.484375 66.265625 50.6875 66.5 
Q 48.828125 67.921875 46.09375 67.921875 
Q 44.578125 67.921875 43.234375 66.5 
Q 41.890625 65.09375 41.5 63.484375 
Q 40.875 60.9375 38.71875 49.703125 
L 37.5 43.109375 
L 47.796875 43.109375 
Q 48.78125 43.109375 48.78125 41.796875 
Q 48.734375 41.546875 48.578125 40.9375 
Q 48.4375 40.328125 48.171875 39.953125 
Q 47.90625 39.59375 47.515625 39.59375 
L 36.8125 39.59375 
L 32.171875 15.1875 
Q 31.296875 9.859375 30.140625 4.359375 
Q 29 -1.125 26.921875 -6.90625 
Q 24.859375 -12.703125 21.625 -16.609375 
Q 18.40625 -20.515625 14.015625 -20.515625 
Q 10.640625 -20.515625 7.984375 -18.578125 
Q 5.328125 -16.65625 5.328125 -13.484375 
Q 5.328125 -10.9375 6.953125 -9.046875 
Q 8.59375 -7.171875 11.078125 -7.171875 
Q 12.75 -7.171875 13.859375 -8.171875 
Q 14.984375 -9.1875 14.984375 -10.796875 
Q 14.984375 -12.9375 13.390625 -14.71875 
Q 11.8125 -16.5 9.71875 -16.5 
" id="Cmmi10-66"/>
     <path d="M 7.515625 23 
Q 6.6875 23 6.140625 23.625 
Q 5.609375 24.265625 5.609375 25 
Q 5.609375 25.734375 6.140625 26.359375 
Q 6.6875 27 7.515625 27 
L 36.921875 27 
L 36.921875 56.5 
Q 36.921875 57.28125 37.5 57.78125 
Q 38.09375 58.296875 38.921875 58.296875 
Q 39.65625 58.296875 40.28125 57.78125 
Q 40.921875 57.28125 40.921875 56.5 
L 40.921875 27 
L 70.3125 27 
Q 71.046875 27 71.578125 26.359375 
Q 72.125 25.734375 72.125 25 
Q 72.125 24.265625 71.578125 23.625 
Q 71.046875 23 70.3125 23 
L 40.921875 23 
L 40.921875 -6.5 
Q 40.921875 -7.28125 40.28125 -7.78125 
Q 39.65625 -8.296875 38.921875 -8.296875 
Q 38.09375 -8.296875 37.5 -7.78125 
Q 36.921875 -7.28125 36.921875 -6.5 
L 36.921875 23 
z
" id="Cmr10-2b"/>
     <path d="M 7.515625 13.28125 
Q 6.6875 13.28125 6.140625 13.90625 
Q 5.609375 14.546875 5.609375 15.28125 
Q 5.609375 16.109375 6.140625 16.6875 
Q 6.6875 17.28125 7.515625 17.28125 
L 70.3125 17.28125 
Q 71.046875 17.28125 71.578125 16.6875 
Q 72.125 16.109375 72.125 15.28125 
Q 72.125 14.546875 71.578125 13.90625 
Q 71.046875 13.28125 70.3125 13.28125 
z
M 7.515625 32.71875 
Q 6.6875 32.71875 6.140625 33.296875 
Q 5.609375 33.890625 5.609375 34.71875 
Q 5.609375 35.453125 6.140625 36.078125 
Q 6.6875 36.71875 7.515625 36.71875 
L 70.3125 36.71875 
Q 71.046875 36.71875 71.578125 36.078125 
Q 72.125 35.453125 72.125 34.71875 
Q 72.125 33.890625 71.578125 33.296875 
Q 71.046875 32.71875 70.3125 32.71875 
z
" id="Cmr10-3d"/>
     <path d="M 9.90625 -18.015625 
Q 9.90625 -17.578125 10.296875 -17.1875 
Q 13.921875 -13.71875 15.921875 -9.171875 
Q 17.921875 -4.640625 17.921875 0.390625 
L 17.921875 1.609375 
Q 16.3125 0 13.921875 0 
Q 11.625 0 10.015625 1.609375 
Q 8.40625 3.21875 8.40625 5.515625 
Q 8.40625 7.859375 10.015625 9.421875 
Q 11.625 10.984375 13.921875 10.984375 
Q 17.484375 10.984375 19 7.6875 
Q 20.515625 4.390625 20.515625 0.390625 
Q 20.515625 -5.171875 18.28125 -10.171875 
Q 16.0625 -15.1875 12.015625 -19.1875 
Q 11.625 -19.390625 11.375 -19.390625 
Q 10.890625 -19.390625 10.390625 -18.9375 
Q 9.90625 -18.5 9.90625 -18.015625 
" id="Cmmi10-3b"/>
    </defs>
    <g transform="translate(265.896 76.0)scale(0.192 -0.192)">
     <use transform="translate(0.0 0.109375)" xlink:href="#Cmmi10-66"/>
     <use transform="translate(48.876953125 0.109375)" xlink:href="#Cmr10-28"/>
     <use transform="translate(87.6953125 0.109375)" xlink:href="#Cmmi10-78"/>
     <use transform="translate(144.775390625 0.109375)" xlink:href="#Cmmi10-3b"/>
     <use transform="translate(190.01953125 0.109375)" xlink:href="#Cmmi10-79"/>
     <use transform="translate(239.04296875 0.109375)" xlink:href="#Cmr10-29"/>
     <use transform="translate(295.419921875 0.109375)" xlink:href="#Cmr10-3d"/>
     <use transform="translate(390.6640625 0.109375)" xlink:href="#Cmr10-35"/>
     <use transform="translate(440.6640625 0.109375)" xlink:href="#Cmmi10-78"/>
     <use transform="translate(504.047421875 38.3734375)scale(0.7)" xlink:href="#Cmr10-32"/>
     <use transform="translate(562.983359375 0.109375)" xlink:href="#Cmsy10-a1"/>
     <use transform="translate(658.2275 0.109375)" xlink:href="#Cmr10-36"/>
     <use transform="translate(708.2275 0.109375)" xlink:href="#Cmmi10-78"/>
     <use transform="translate(765.307578125 0.109375)" xlink:href="#Cmmi10-79"/>
     <use transform="translate(831.889609375 0.109375)" xlink:href="#Cmr10-2b"/>
     <use transform="translate(927.13375 0.109375)" xlink:href="#Cmr10-35"/>
     <use transform="translate(977.13375 0.109375)" xlink:href="#Cmmi10-79"/>
     <use transform="translate(1032.46046875 38.3734375)scale(0.7)" xlink:href="#Cmr10-32"/>
    </g>
   </g>
  </g>
 </g>
 <defs>
  <clipPath id="p5ef1fd53d5">
   <rect height="558.0" width="558.0" x="90.0" y="81.0"/>
  </clipPath>
 </defs>
</svg>
